<?xml version="1.0" encoding="UTF-8" standalone="no"?><!-- Generator: Gravit.io --><svg xmlns="http://www.w3.org/2000/svg" xmlns:xlink="http://www.w3.org/1999/xlink" style="isolation:isolate" viewBox="0 0 30000 3000" width="30000pt" height="3000pt"><defs><clipPath id="_clipPath_Okbaxh1KCkjr7mMTHzdng86QGROt6H1Z"><rect width="30000" height="3000"/></clipPath></defs><g clip-path="url(#_clipPath_Okbaxh1KCkjr7mMTHzdng86QGROt6H1Z)"><linearGradient id="_lgradient_0" x1="0.4999999999999999" y1="0" x2="0.49999999999999994" y2="1" gradientTransform="matrix(30000,0,0,2715,0,0)" gradientUnits="userSpaceOnUse"><stop offset="0%" stop-opacity="1" style="stop-color:rgb(134,17,17)"/><stop offset="100%" stop-opacity="1" style="stop-color:rgb(92,23,24)"/></linearGradient><path d=" M 14631.3 2000 L 14401.594 2000 L 14401.594 2000 Q 14418.394 2003.416 14433.8 2008 L 14433.8 2008 L 14433.8 2008 Q 14494.3 2026 14533.8 2058 L 14533.8 2058 L 14533.8 2058 Q 14573.3 2090 14592.3 2135.5 L 14592.3 2135.5 L 14592.3 2135.5 Q 14611.3 2181 14611.3 2235 L 14611.3 2235 L 14611.3 2235 Q 14611.3 2290 14597.3 2327 L 14597.3 2327 L 14597.3 2327 Q 14583.3 2364 14566.3 2387 L 14566.3 2387 L 14566.3 2387 Q 14546.3 2414 14521.3 2430 L 14521.3 2430 L 14691.3 2700 L 14691.3 2700 L 14391.3 2700 L 14271.3 2470 L 14261.3 2470 L 14261.3 2700 L 14001.3 2700 L 14001.3 2000 L 13891.3 2000 L 13891.3 2000 L 13891.3 2200 L 13611.3 2200 L 13611.3 2250 L 13871.3 2250 L 13871.3 2450 L 13611.3 2450 L 13611.3 2500 L 13911.3 2500 L 13911.3 2700 L 13351.3 2700 L 13351.3 2000 L 13281.3 2000 L 13086.3 2700 L 12746.3 2700 L 12551.3 2000 L 12551.3 2000 L 12491.3 2000 L 12491.3 2000 L 12491.3 2200 L 12211.3 2200 L 12211.3 2250 L 12471.3 2250 L 12471.3 2450 L 12211.3 2450 L 12211.3 2500 L 12511.3 2500 L 12511.3 2700 L 11951.3 2700 L 11951.3 2000 L 0 2000 L 0 0 L 0 0 L 30000 0 L 30000 2000 L 17495.714 2000 L 17495.714 2200 L 17225.714 2200 L 17225.714 2250 L 17476.429 2250 L 17476.429 2450 L 17225.714 2450 L 17225.714 2500 L 17515 2500 L 17515 2700 L 16975 2700 L 16975 2000 L 16975 2000 L 16882.3 2000 L 16882.3 2000 L 16882.3 2700 L 16592.3 2700 L 16422.3 2390 L 16422.3 2700 L 16162.3 2700 L 16162.3 2000 L 15841.691 2000 Q 15861.999 2005.494 15881.3 2013 L 15881.3 2013 L 15881.3 2013 Q 15953.3 2041 16004.8 2090.5 L 16004.8 2090.5 L 16004.8 2090.5 Q 16056.3 2140 16084.8 2206.5 L 16084.8 2206.5 L 16084.8 2206.5 Q 16113.3 2273 16113.3 2350 L 16113.3 2350 L 16113.3 2350 L 16113.3 2350 Q 16113.3 2427 16084.8 2493.5 L 16084.8 2493.5 L 16084.8 2493.5 Q 16056.3 2560 16004.8 2609.5 L 16004.8 2609.5 L 16004.8 2609.5 Q 15953.3 2659 15881.3 2687 L 15881.3 2687 L 15881.3 2687 Q 15809.3 2715 15723.3 2715 L 15723.3 2715 L 15723.3 2715 Q 15637.3 2715 15565.3 2687 L 15565.3 2687 L 15565.3 2687 Q 15493.3 2659 15441.8 2609.5 L 15441.8 2609.5 L 15441.8 2609.5 Q 15390.3 2560 15361.8 2493.5 L 15361.8 2493.5 L 15361.8 2493.5 Q 15333.3 2427 15333.3 2350 L 15333.3 2350 L 15333.3 2350 Q 15333.3 2273 15361.8 2206.5 L 15361.8 2206.5 L 15361.8 2206.5 Q 15390.3 2140 15441.8 2090.5 L 15441.8 2090.5 L 15441.8 2090.5 Q 15493.3 2041 15565.3 2013 L 15565.3 2013 L 15565.3 2013 Q 15584.601 2005.494 15604.909 2000 L 15604.909 2000 L 15371.3 2000 L 15131.3 2430 L 15131.3 2700 L 14871.3 2700 L 14871.3 2430 L 14631.3 2000 Z  M 14931.3 2000 L 15071.3 2000 L 15001.3 2200 L 14931.3 2000 Z  M 12841.3 2000 L 12991.3 2000 L 12916.3 2410 L 12841.3 2000 L 12841.3 2000 L 12841.3 2000 Z  M 16622.3 2000 L 16452.3 2000 L 16622.3 2310 L 16622.3 2000 L 16622.3 2000 L 16622.3 2000 L 16622.3 2000 L 16622.3 2000 L 16622.3 2000 Z  M 14401.562 1999.994 L 14589.414 1999.994 L 14712.943 1423.523 L 14490.591 1423.523 L 14445.296 1740.582 L 14383.532 1423.523 L 14383.532 1423.523 L 14194.12 1423.523 L 14132.355 1740.582 L 14087.061 1423.523 L 13864.708 1423.523 L 13988.238 1999.994 L 14001.433 1999.994 Q 14042.378 1997.995 14090.3 1995 L 14090.3 1995 L 14090.3 1995 Q 14131.3 1993 14182.8 1991.5 L 14182.8 1991.5 L 14182.8 1991.5 Q 14205.407 1990.842 14229.073 1990.472 L 14288.826 1707.641 L 14348.999 1992.461 Q 14376.795 1994.959 14401.562 1999.994 L 14401.562 1999.994 L 14401.562 1999.994 L 14401.562 1999.994 L 14401.562 1999.994 L 14401.562 1999.994 L 14401.562 1999.994 L 14401.562 1999.994 Z  M 17248.645 1999.994 L 17103.811 1744.699 L 17103.811 1999.994 L 16882.3 1999.994 L 16882.3 1423.523 L 17129.37 1423.523 L 17274.204 1678.817 L 17274.204 1423.523 L 17495.715 1423.523 L 17495.715 1999.994 L 17248.645 1999.994 L 17248.645 1999.994 L 17248.645 1999.994 L 17248.645 1999.994 L 17248.645 1999.994 L 17248.645 1999.994 L 17248.645 1999.994 L 17248.645 1999.994 L 17248.645 1999.994 Z  M 14972.473 1785.876 L 15030.12 1785.876 L 15001.296 1637.641 L 14972.473 1785.876 L 14972.473 1785.876 L 14972.473 1785.876 L 14972.473 1785.876 L 14972.473 1785.876 L 14972.473 1785.876 L 14972.473 1785.876 L 14972.473 1785.876 L 14972.473 1785.876 Z  M 15601.885 1662.346 L 15626.591 1662.346 L 15626.591 1662.346 Q 15648.002 1662.346 15662.002 1649.17 L 15662.002 1649.17 L 15662.002 1649.17 Q 15676.002 1635.994 15676.002 1617.052 L 15676.002 1617.052 L 15676.002 1617.052 Q 15676.002 1598.111 15662.002 1584.935 L 15662.002 1584.935 L 15662.002 1584.935 Q 15648.002 1571.758 15626.591 1571.758 L 15626.591 1571.758 L 15601.885 1571.758 L 15601.885 1662.346 L 15601.885 1662.346 L 15601.885 1662.346 L 15601.885 1662.346 L 15601.885 1662.346 L 15601.885 1662.346 L 15601.885 1662.346 L 15601.885 1662.346 L 15601.885 1662.346 Z  M 11951.3 1423.523 L 12478.359 1423.523 L 12478.359 1612.935 L 12321.888 1612.935 L 12321.888 1999.994 L 12107.771 1999.994 L 12107.771 1612.935 L 11951.3 1612.935 L 11951.3 1423.523 L 11951.3 1423.523 L 11951.3 1423.523 L 11951.3 1423.523 L 11951.3 1423.523 L 11951.3 1423.523 L 11951.3 1423.523 L 11951.3 1423.523 L 11951.3 1423.523 Z  M 12765.418 1423.523 L 12765.418 1621.17 L 12897.182 1621.17 L 12897.182 1423.523 L 13111.3 1423.523 L 13111.3 1999.994 L 12897.182 1999.994 L 12897.182 1802.346 L 12765.418 1802.346 L 12765.418 1999.994 L 12551.3 1999.994 L 12551.3 1423.523 L 12765.418 1423.523 L 12765.418 1423.523 L 12765.418 1423.523 L 12765.418 1423.523 L 12765.418 1423.523 L 12765.418 1423.523 L 12765.418 1423.523 L 12765.418 1423.523 L 12765.418 1423.523 Z  M 13430.002 1794.111 L 13430.002 1835.288 L 13677.061 1835.288 L 13677.061 1999.994 L 13215.885 1999.994 L 13215.885 1423.523 L 13660.591 1423.523 L 13660.591 1588.229 L 13430.002 1588.229 L 13430.002 1629.405 L 13644.12 1629.405 L 13644.12 1794.111 L 13430.002 1794.111 L 13430.002 1794.111 L 13430.002 1794.111 L 13430.002 1794.111 L 13430.002 1794.111 L 13430.002 1794.111 L 13430.002 1794.111 L 13430.002 1794.111 L 13430.002 1794.111 Z  M 16558.943 1711.758 L 16558.943 1711.758 L 16558.943 1711.758 Q 16558.943 1690.346 16551.532 1672.229 L 16551.532 1672.229 L 16551.532 1672.229 Q 16544.12 1654.111 16531.767 1640.935 L 16531.767 1640.935 L 16531.767 1640.935 Q 16519.414 1627.758 16502.944 1620.346 L 16502.944 1620.346 L 16502.944 1620.346 Q 16486.473 1612.935 16468.356 1612.935 L 16468.356 1612.935 L 16468.356 1612.935 Q 16449.414 1612.935 16432.944 1620.346 L 16432.944 1620.346 L 16432.944 1620.346 Q 16416.473 1627.758 16404.12 1640.935 L 16404.12 1640.935 L 16404.12 1640.935 Q 16391.767 1654.111 16384.767 1672.229 L 16384.767 1672.229 L 16384.767 1672.229 Q 16377.767 1690.346 16377.767 1711.758 L 16377.767 1711.758 L 16377.767 1711.758 Q 16377.767 1733.17 16384.767 1751.288 L 16384.767 1751.288 L 16384.767 1751.288 Q 16391.767 1769.405 16404.12 1782.582 L 16404.12 1782.582 L 16404.12 1782.582 Q 16416.473 1795.758 16432.944 1803.17 L 16432.944 1803.17 L 16432.944 1803.17 Q 16449.414 1810.582 16468.356 1810.582 L 16468.356 1810.582 L 16468.356 1810.582 Q 16486.473 1810.582 16502.944 1803.17 L 16502.944 1803.17 L 16502.944 1803.17 Q 16519.414 1795.758 16531.767 1782.582 L 16531.767 1782.582 L 16531.767 1782.582 Q 16544.12 1769.405 16551.532 1751.288 L 16551.532 1751.288 L 16551.532 1751.288 Q 16558.943 1733.17 16558.943 1711.758 L 16558.943 1711.758 L 16558.943 1711.758 L 16558.943 1711.758 L 16558.943 1711.758 L 16558.943 1711.758 L 16558.943 1711.758 L 16558.943 1711.758 L 16558.943 1711.758 Z  M 14261.3 2290 L 14291.3 2290 L 14291.3 2290 Q 14317.3 2290 14334.3 2274 L 14334.3 2274 L 14334.3 2274 Q 14351.3 2258 14351.3 2235 L 14351.3 2235 L 14351.3 2235 Q 14351.3 2212 14334.3 2196 L 14334.3 2196 L 14334.3 2196 Q 14317.3 2180 14291.3 2180 L 14291.3 2180 L 14261.3 2180 L 14261.3 2290 L 14261.3 2290 L 14261.3 2290 L 14261.3 2290 L 14261.3 2290 L 14261.3 2290 L 14261.3 2290 L 14261.3 2290 L 14261.3 2290 Z  M 15833.3 2350 L 15833.3 2350 L 15833.3 2350 Q 15833.3 2324 15824.3 2302 L 15824.3 2302 L 15824.3 2302 Q 15815.3 2280 15800.3 2264 L 15800.3 2264 L 15800.3 2264 Q 15785.3 2248 15765.3 2239 L 15765.3 2239 L 15765.3 2239 Q 15745.3 2230 15723.3 2230 L 15723.3 2230 L 15723.3 2230 Q 15700.3 2230 15680.3 2239 L 15680.3 2239 L 15680.3 2239 Q 15660.3 2248 15645.3 2264 L 15645.3 2264 L 15645.3 2264 Q 15630.3 2280 15621.8 2302 L 15621.8 2302 L 15621.8 2302 Q 15613.3 2324 15613.3 2350 L 15613.3 2350 L 15613.3 2350 Q 15613.3 2376 15621.8 2398 L 15621.8 2398 L 15621.8 2398 Q 15630.3 2420 15645.3 2436 L 15645.3 2436 L 15645.3 2436 Q 15660.3 2452 15680.3 2461 L 15680.3 2461 L 15680.3 2461 Q 15700.3 2470 15723.3 2470 L 15723.3 2470 L 15723.3 2470 Q 15745.3 2470 15765.3 2461 L 15765.3 2461 L 15765.3 2461 Q 15785.3 2452 15800.3 2436 L 15800.3 2436 L 15800.3 2436 Q 15815.3 2420 15824.3 2398 L 15824.3 2398 L 15824.3 2398 Q 15833.3 2376 15833.3 2350 L 15833.3 2350 L 15833.3 2350 L 15833.3 2350 L 15833.3 2350 L 15833.3 2350 L 15833.3 2350 L 15833.3 2350 Z  M 15841.667 1999.994 L 15959.535 1999.994 L 15959.535 1999.994 L 15959.535 1999.994 L 15819.535 1777.641 L 15819.535 1777.641 Q 15840.123 1764.464 15856.594 1742.229 L 15856.594 1742.229 L 15856.594 1742.229 Q 15870.594 1723.288 15882.123 1692.817 L 15882.123 1692.817 L 15882.123 1692.817 Q 15893.653 1662.346 15893.653 1617.052 L 15893.653 1617.052 L 15893.653 1617.052 Q 15893.653 1572.582 15878.006 1535.111 L 15878.006 1535.111 L 15878.006 1535.111 Q 15862.359 1497.641 15829.829 1471.288 L 15829.829 1471.288 L 15829.829 1471.288 Q 15797.3 1444.935 15747.476 1430.111 L 15747.476 1430.111 L 15747.476 1430.111 Q 15697.653 1415.288 15630.124 1415.288 L 15630.124 1415.288 L 15630.124 1415.288 Q 15583.182 1415.288 15540.771 1416.523 L 15540.771 1416.523 L 15540.771 1416.523 Q 15498.359 1417.758 15464.594 1419.405 L 15464.594 1419.405 L 15464.594 1419.405 Q 15425.065 1421.876 15391.3 1423.523 L 15391.3 1423.523 L 15391.3 1999.994 L 15604.933 1999.994 Q 15605.175 1999.928 15605.418 1999.863 L 15605.418 1810.582 L 15613.653 1810.582 L 15704.825 1985.329 Q 15713.981 1985 15723.3 1985 L 15723.3 1985 L 15723.3 1985 Q 15786.232 1985 15841.667 1999.994 L 15841.667 1999.994 L 15841.667 1999.994 L 15841.667 1999.994 L 15841.667 1999.994 L 15841.667 1999.994 L 15841.667 1999.994 Z  M 14861.297 1423.523 L 15141.296 1423.523 L 15141.296 1423.523 Q 15141.296 1424.346 15148.708 1449.464 L 15148.708 1449.464 L 15148.708 1449.464 Q 15156.12 1474.582 15168.061 1515.346 L 15168.061 1515.346 L 15168.061 1515.346 Q 15180.002 1556.111 15195.238 1607.993 L 15195.238 1607.993 L 15195.238 1607.993 Q 15210.473 1659.876 15226.12 1713.405 L 15226.12 1713.405 L 15226.12 1713.405 Q 15263.179 1840.229 15310.12 1999.994 L 15310.12 1999.994 L 15071.297 1999.994 L 15054.826 1917.641 L 14947.767 1917.641 L 14931.296 1999.994 L 14692.473 1999.994 L 14861.297 1423.523 L 14861.297 1423.523 L 14861.297 1423.523 L 14861.297 1423.523 L 14861.297 1423.523 L 14861.297 1423.523 L 14861.297 1423.523 L 14861.297 1423.523 L 14861.297 1423.523 Z  M 16371.195 1999.994 C 16359.901 1997.041 16348.929 1993.445 16338.237 1989.288 L 16338.237 1989.288 L 16338.237 1989.288 Q 16278.943 1966.229 16236.531 1925.464 L 16236.531 1925.464 L 16236.531 1925.464 Q 16194.12 1884.699 16170.649 1829.935 L 16170.649 1829.935 L 16170.649 1829.935 Q 16147.179 1775.17 16147.179 1711.758 L 16147.179 1711.758 L 16147.179 1711.758 Q 16147.179 1648.346 16170.649 1593.582 L 16170.649 1593.582 L 16170.649 1593.582 Q 16194.12 1538.817 16236.531 1498.052 L 16236.531 1498.052 L 16236.531 1498.052 Q 16278.943 1457.288 16338.237 1434.229 L 16338.237 1434.229 L 16338.237 1434.229 Q 16397.531 1411.17 16468.355 1411.17 L 16468.355 1411.17 L 16468.355 1411.17 Q 16539.18 1411.17 16598.473 1434.229 L 16598.473 1434.229 L 16598.473 1434.229 Q 16657.768 1457.288 16700.18 1498.052 L 16700.18 1498.052 L 16700.18 1498.052 Q 16742.59 1538.817 16766.061 1593.582 L 16766.061 1593.582 L 16766.061 1593.582 Q 16789.531 1648.346 16789.531 1711.758 L 16789.531 1711.758 L 16789.531 1711.758 Q 16789.531 1775.17 16766.061 1829.935 L 16766.061 1829.935 L 16766.061 1829.935 Q 16742.59 1884.699 16700.18 1925.464 L 16700.18 1925.464 L 16700.18 1925.464 Q 16657.768 1966.229 16598.473 1989.288 L 16598.473 1989.288 L 16598.473 1989.288 Q 16582.436 1995.524 16565.516 1999.994 L 16371.195 1999.994 L 16371.195 1999.994 L 16371.195 1999.994 L 16371.195 1999.994 L 16371.195 1999.994 L 16371.195 1999.994 L 16371.195 1999.994 L 16371.195 1999.994 L 16371.195 1999.994 L 16371.195 1999.994 Z " fill-rule="evenodd" fill="url(#_lgradient_0)"/></g></svg>