<?xml version="1.0" encoding="UTF-8" standalone="no"?><!-- Generator: Gravit.io --><svg xmlns="http://www.w3.org/2000/svg" xmlns:xlink="http://www.w3.org/1999/xlink" style="isolation:isolate" viewBox="0 0 30000 3000" width="30000pt" height="3000pt"><defs><clipPath id="_clipPath_rovJSWBOCMPBDwkCxPGmkXSYoZDqQK7p"><rect width="30000" height="3000"/></clipPath></defs><g clip-path="url(#_clipPath_rovJSWBOCMPBDwkCxPGmkXSYoZDqQK7p)"><linearGradient id="_lgradient_0" x1="0.5" y1="0" x2="0.5000000000000001" y2="1" gradientTransform="matrix(30000,0,0,2715,0,0)" gradientUnits="userSpaceOnUse"><stop offset="0%" stop-opacity="1" style="stop-color:rgb(134,17,17)"/><stop offset="100%" stop-opacity="1" style="stop-color:rgb(92,23,24)"/></linearGradient><path d=" M 14907.3 2000 L 14677.594 2000 L 14677.594 2000 Q 14694.394 2003.416 14709.8 2008 L 14709.8 2008 L 14709.8 2008 Q 14770.3 2026 14809.8 2058 L 14809.8 2058 L 14809.8 2058 Q 14849.3 2090 14868.3 2135.5 L 14868.3 2135.5 L 14868.3 2135.5 Q 14887.3 2181 14887.3 2235 L 14887.3 2235 L 14887.3 2235 Q 14887.3 2290 14873.3 2327 L 14873.3 2327 L 14873.3 2327 Q 14859.3 2364 14842.3 2387 L 14842.3 2387 L 14842.3 2387 Q 14822.3 2414 14797.3 2430 L 14797.3 2430 L 14967.3 2700 L 14967.3 2700 L 14667.3 2700 L 14547.3 2470 L 14537.3 2470 L 14537.3 2700 L 14277.3 2700 L 14277.3 2000 L 14167.3 2000 L 14167.3 2000 L 14167.3 2200 L 13887.3 2200 L 13887.3 2250 L 14147.3 2250 L 14147.3 2450 L 13887.3 2450 L 13887.3 2500 L 14187.3 2500 L 14187.3 2700 L 13627.3 2700 L 13627.3 2000 L 13557.3 2000 L 13362.3 2700 L 13022.3 2700 L 12827.3 2000 L 12827.3 2000 L 12767.3 2000 L 12767.3 2000 L 12767.3 2200 L 12487.3 2200 L 12487.3 2250 L 12747.3 2250 L 12747.3 2450 L 12487.3 2450 L 12487.3 2500 L 12787.3 2500 L 12787.3 2700 L 12227.3 2700 L 12227.3 2000 L 0 2000 L 0 0 L 0 0 L 30000 0 L 30000 2000 L 17771.715 2000 L 17771.715 2200 L 17501.715 2200 L 17501.715 2250 L 17752.428 2250 L 17752.428 2450 L 17501.715 2450 L 17501.715 2500 L 17791 2500 L 17791 2700 L 17251 2700 L 17251 2000 L 17251 2000 L 17158.301 2000 L 17158.301 2000 L 17158.301 2700 L 16868.301 2700 L 16698.301 2390 L 16698.301 2700 L 16438.3 2700 L 16438.3 2000 L 16117.691 2000 Q 16137.999 2005.494 16157.3 2013 L 16157.3 2013 L 16157.3 2013 Q 16229.3 2041 16280.8 2090.5 L 16280.8 2090.5 L 16280.8 2090.5 Q 16332.3 2140 16360.8 2206.5 L 16360.8 2206.5 L 16360.8 2206.5 Q 16389.3 2273 16389.3 2350 L 16389.3 2350 L 16389.3 2350 L 16389.3 2350 Q 16389.3 2427 16360.8 2493.5 L 16360.8 2493.5 L 16360.8 2493.5 Q 16332.3 2560 16280.8 2609.5 L 16280.8 2609.5 L 16280.8 2609.5 Q 16229.3 2659 16157.3 2687 L 16157.3 2687 L 16157.3 2687 Q 16085.3 2715 15999.3 2715 L 15999.3 2715 L 15999.3 2715 Q 15913.3 2715 15841.3 2687 L 15841.3 2687 L 15841.3 2687 Q 15769.3 2659 15717.8 2609.5 L 15717.8 2609.5 L 15717.8 2609.5 Q 15666.3 2560 15637.8 2493.5 L 15637.8 2493.5 L 15637.8 2493.5 Q 15609.3 2427 15609.3 2350 L 15609.3 2350 L 15609.3 2350 Q 15609.3 2273 15637.8 2206.5 L 15637.8 2206.5 L 15637.8 2206.5 Q 15666.3 2140 15717.8 2090.5 L 15717.8 2090.5 L 15717.8 2090.5 Q 15769.3 2041 15841.3 2013 L 15841.3 2013 L 15841.3 2013 Q 15860.602 2005.494 15880.909 2000 L 15880.909 2000 L 15647.3 2000 L 15407.3 2430 L 15407.3 2700 L 15147.3 2700 L 15147.3 2430 L 14907.3 2000 Z  M 15207.3 2000 L 15347.3 2000 L 15277.3 2200 L 15207.3 2000 Z  M 13117.3 2000 L 13267.3 2000 L 13192.3 2410 L 13117.3 2000 L 13117.3 2000 L 13117.3 2000 Z  M 16898.301 2000 L 16728.301 2000 L 16898.301 2310 L 16898.301 2000 L 16898.301 2000 L 16898.301 2000 L 16898.301 2000 L 16898.301 2000 L 16898.301 2000 Z  M 14677.562 1999.994 L 14865.414 1999.994 L 14988.943 1423.523 L 14766.591 1423.523 L 14721.297 1740.582 L 14659.531 1423.523 L 14659.531 1423.523 L 14470.12 1423.523 L 14408.355 1740.582 L 14363.062 1423.523 L 14140.708 1423.523 L 14264.237 1999.994 L 14277.434 1999.994 Q 14318.378 1997.995 14366.3 1995 L 14366.3 1995 L 14366.3 1995 Q 14407.3 1993 14458.8 1991.5 L 14458.8 1991.5 L 14458.8 1991.5 Q 14481.406 1990.842 14505.073 1990.472 L 14564.826 1707.641 L 14624.999 1992.461 Q 14652.795 1994.959 14677.562 1999.994 L 14677.562 1999.994 L 14677.562 1999.994 L 14677.562 1999.994 L 14677.562 1999.994 L 14677.562 1999.994 L 14677.562 1999.994 L 14677.562 1999.994 Z  M 17524.645 1999.994 L 17379.811 1744.699 L 17379.811 1999.994 L 17158.301 1999.994 L 17158.301 1423.523 L 17405.369 1423.523 L 17550.205 1678.817 L 17550.205 1423.523 L 17771.715 1423.523 L 17771.715 1999.994 L 17524.645 1999.994 L 17524.645 1999.994 L 17524.645 1999.994 L 17524.645 1999.994 L 17524.645 1999.994 L 17524.645 1999.994 L 17524.645 1999.994 L 17524.645 1999.994 L 17524.645 1999.994 Z  M 15248.473 1785.876 L 15306.12 1785.876 L 15277.297 1637.641 L 15248.473 1785.876 L 15248.473 1785.876 L 15248.473 1785.876 L 15248.473 1785.876 L 15248.473 1785.876 L 15248.473 1785.876 L 15248.473 1785.876 L 15248.473 1785.876 L 15248.473 1785.876 Z  M 15877.885 1662.346 L 15902.591 1662.346 L 15902.591 1662.346 Q 15924.003 1662.346 15938.002 1649.17 L 15938.002 1649.17 L 15938.002 1649.17 Q 15952.002 1635.994 15952.002 1617.052 L 15952.002 1617.052 L 15952.002 1617.052 Q 15952.002 1598.111 15938.002 1584.935 L 15938.002 1584.935 L 15938.002 1584.935 Q 15924.003 1571.758 15902.591 1571.758 L 15902.591 1571.758 L 15877.885 1571.758 L 15877.885 1662.346 L 15877.885 1662.346 L 15877.885 1662.346 L 15877.885 1662.346 L 15877.885 1662.346 L 15877.885 1662.346 L 15877.885 1662.346 L 15877.885 1662.346 L 15877.885 1662.346 Z  M 12227.3 1423.523 L 12754.358 1423.523 L 12754.358 1612.935 L 12597.889 1612.935 L 12597.889 1999.994 L 12383.771 1999.994 L 12383.771 1612.935 L 12227.3 1612.935 L 12227.3 1423.523 L 12227.3 1423.523 L 12227.3 1423.523 L 12227.3 1423.523 L 12227.3 1423.523 L 12227.3 1423.523 L 12227.3 1423.523 L 12227.3 1423.523 L 12227.3 1423.523 Z  M 13041.418 1423.523 L 13041.418 1621.17 L 13173.183 1621.17 L 13173.183 1423.523 L 13387.3 1423.523 L 13387.3 1999.994 L 13173.183 1999.994 L 13173.183 1802.346 L 13041.418 1802.346 L 13041.418 1999.994 L 12827.3 1999.994 L 12827.3 1423.523 L 13041.418 1423.523 L 13041.418 1423.523 L 13041.418 1423.523 L 13041.418 1423.523 L 13041.418 1423.523 L 13041.418 1423.523 L 13041.418 1423.523 L 13041.418 1423.523 L 13041.418 1423.523 Z  M 13706.002 1794.111 L 13706.002 1835.288 L 13953.062 1835.288 L 13953.062 1999.994 L 13491.885 1999.994 L 13491.885 1423.523 L 13936.591 1423.523 L 13936.591 1588.229 L 13706.002 1588.229 L 13706.002 1629.405 L 13920.12 1629.405 L 13920.12 1794.111 L 13706.002 1794.111 L 13706.002 1794.111 L 13706.002 1794.111 L 13706.002 1794.111 L 13706.002 1794.111 L 13706.002 1794.111 L 13706.002 1794.111 L 13706.002 1794.111 L 13706.002 1794.111 Z  M 16834.943 1711.758 L 16834.943 1711.758 L 16834.943 1711.758 Q 16834.943 1690.346 16827.531 1672.229 L 16827.531 1672.229 L 16827.531 1672.229 Q 16820.121 1654.111 16807.768 1640.935 L 16807.768 1640.935 L 16807.768 1640.935 Q 16795.414 1627.758 16778.943 1620.346 L 16778.943 1620.346 L 16778.943 1620.346 Q 16762.473 1612.935 16744.355 1612.935 L 16744.355 1612.935 L 16744.355 1612.935 Q 16725.414 1612.935 16708.943 1620.346 L 16708.943 1620.346 L 16708.943 1620.346 Q 16692.473 1627.758 16680.119 1640.935 L 16680.119 1640.935 L 16680.119 1640.935 Q 16667.768 1654.111 16660.768 1672.229 L 16660.768 1672.229 L 16660.768 1672.229 Q 16653.768 1690.346 16653.768 1711.758 L 16653.768 1711.758 L 16653.768 1711.758 Q 16653.768 1733.17 16660.768 1751.288 L 16660.768 1751.288 L 16660.768 1751.288 Q 16667.768 1769.405 16680.119 1782.582 L 16680.119 1782.582 L 16680.119 1782.582 Q 16692.473 1795.758 16708.943 1803.17 L 16708.943 1803.17 L 16708.943 1803.17 Q 16725.414 1810.582 16744.355 1810.582 L 16744.355 1810.582 L 16744.355 1810.582 Q 16762.473 1810.582 16778.943 1803.17 L 16778.943 1803.17 L 16778.943 1803.17 Q 16795.414 1795.758 16807.768 1782.582 L 16807.768 1782.582 L 16807.768 1782.582 Q 16820.121 1769.405 16827.531 1751.288 L 16827.531 1751.288 L 16827.531 1751.288 Q 16834.943 1733.17 16834.943 1711.758 L 16834.943 1711.758 L 16834.943 1711.758 L 16834.943 1711.758 L 16834.943 1711.758 L 16834.943 1711.758 L 16834.943 1711.758 L 16834.943 1711.758 L 16834.943 1711.758 Z  M 14537.3 2290 L 14567.3 2290 L 14567.3 2290 Q 14593.3 2290 14610.3 2274 L 14610.3 2274 L 14610.3 2274 Q 14627.3 2258 14627.3 2235 L 14627.3 2235 L 14627.3 2235 Q 14627.3 2212 14610.3 2196 L 14610.3 2196 L 14610.3 2196 Q 14593.3 2180 14567.3 2180 L 14567.3 2180 L 14537.3 2180 L 14537.3 2290 L 14537.3 2290 L 14537.3 2290 L 14537.3 2290 L 14537.3 2290 L 14537.3 2290 L 14537.3 2290 L 14537.3 2290 L 14537.3 2290 Z  M 16109.3 2350 L 16109.3 2350 L 16109.3 2350 Q 16109.3 2324 16100.3 2302 L 16100.3 2302 L 16100.3 2302 Q 16091.3 2280 16076.3 2264 L 16076.3 2264 L 16076.3 2264 Q 16061.3 2248 16041.3 2239 L 16041.3 2239 L 16041.3 2239 Q 16021.3 2230 15999.3 2230 L 15999.3 2230 L 15999.3 2230 Q 15976.3 2230 15956.3 2239 L 15956.3 2239 L 15956.3 2239 Q 15936.3 2248 15921.3 2264 L 15921.3 2264 L 15921.3 2264 Q 15906.3 2280 15897.8 2302 L 15897.8 2302 L 15897.8 2302 Q 15889.3 2324 15889.3 2350 L 15889.3 2350 L 15889.3 2350 Q 15889.3 2376 15897.8 2398 L 15897.8 2398 L 15897.8 2398 Q 15906.3 2420 15921.3 2436 L 15921.3 2436 L 15921.3 2436 Q 15936.3 2452 15956.3 2461 L 15956.3 2461 L 15956.3 2461 Q 15976.3 2470 15999.3 2470 L 15999.3 2470 L 15999.3 2470 Q 16021.3 2470 16041.3 2461 L 16041.3 2461 L 16041.3 2461 Q 16061.3 2452 16076.3 2436 L 16076.3 2436 L 16076.3 2436 Q 16091.3 2420 16100.3 2398 L 16100.3 2398 L 16100.3 2398 Q 16109.3 2376 16109.3 2350 L 16109.3 2350 L 16109.3 2350 L 16109.3 2350 L 16109.3 2350 L 16109.3 2350 L 16109.3 2350 L 16109.3 2350 Z  M 16117.667 1999.994 L 16235.535 1999.994 L 16235.535 1999.994 L 16235.535 1999.994 L 16095.535 1777.641 L 16095.535 1777.641 Q 16116.123 1764.464 16132.595 1742.229 L 16132.595 1742.229 L 16132.595 1742.229 Q 16146.594 1723.288 16158.123 1692.817 L 16158.123 1692.817 L 16158.123 1692.817 Q 16169.653 1662.346 16169.653 1617.052 L 16169.653 1617.052 L 16169.653 1617.052 Q 16169.653 1572.582 16154.006 1535.111 L 16154.006 1535.111 L 16154.006 1535.111 Q 16138.358 1497.641 16105.829 1471.288 L 16105.829 1471.288 L 16105.829 1471.288 Q 16073.3 1444.935 16023.477 1430.111 L 16023.477 1430.111 L 16023.477 1430.111 Q 15973.653 1415.288 15906.124 1415.288 L 15906.124 1415.288 L 15906.124 1415.288 Q 15859.183 1415.288 15816.771 1416.523 L 15816.771 1416.523 L 15816.771 1416.523 Q 15774.358 1417.758 15740.595 1419.405 L 15740.595 1419.405 L 15740.595 1419.405 Q 15701.064 1421.876 15667.3 1423.523 L 15667.3 1423.523 L 15667.3 1999.994 L 15880.933 1999.994 Q 15881.175 1999.928 15881.418 1999.863 L 15881.418 1810.582 L 15889.653 1810.582 L 15980.825 1985.329 Q 15989.98 1985 15999.3 1985 L 15999.3 1985 L 15999.3 1985 Q 16062.231 1985 16117.667 1999.994 L 16117.667 1999.994 L 16117.667 1999.994 L 16117.667 1999.994 L 16117.667 1999.994 L 16117.667 1999.994 L 16117.667 1999.994 Z  M 15137.297 1423.523 L 15417.297 1423.523 L 15417.297 1423.523 Q 15417.297 1424.346 15424.708 1449.464 L 15424.708 1449.464 L 15424.708 1449.464 Q 15432.12 1474.582 15444.062 1515.346 L 15444.062 1515.346 L 15444.062 1515.346 Q 15456.002 1556.111 15471.237 1607.994 L 15471.237 1607.994 L 15471.237 1607.994 Q 15486.473 1659.876 15502.12 1713.405 L 15502.12 1713.405 L 15502.12 1713.405 Q 15539.179 1840.229 15586.12 1999.994 L 15586.12 1999.994 L 15347.297 1999.994 L 15330.826 1917.641 L 15223.768 1917.641 L 15207.296 1999.994 L 14968.473 1999.994 L 15137.297 1423.523 L 15137.297 1423.523 L 15137.297 1423.523 L 15137.297 1423.523 L 15137.297 1423.523 L 15137.297 1423.523 L 15137.297 1423.523 L 15137.297 1423.523 L 15137.297 1423.523 Z  M 16647.195 1999.994 C 16635.901 1997.041 16624.929 1993.445 16614.237 1989.288 L 16614.237 1989.288 L 16614.237 1989.288 Q 16554.943 1966.229 16512.531 1925.464 L 16512.531 1925.464 L 16512.531 1925.464 Q 16470.12 1884.699 16446.649 1829.935 L 16446.649 1829.935 L 16446.649 1829.935 Q 16423.179 1775.17 16423.179 1711.758 L 16423.179 1711.758 L 16423.179 1711.758 Q 16423.179 1648.346 16446.649 1593.582 L 16446.649 1593.582 L 16446.649 1593.582 Q 16470.12 1538.817 16512.531 1498.052 L 16512.531 1498.052 L 16512.531 1498.052 Q 16554.943 1457.288 16614.237 1434.229 L 16614.237 1434.229 L 16614.237 1434.229 Q 16673.531 1411.17 16744.355 1411.17 L 16744.355 1411.17 L 16744.355 1411.17 Q 16815.18 1411.17 16874.473 1434.229 L 16874.473 1434.229 L 16874.473 1434.229 Q 16933.768 1457.288 16976.18 1498.052 L 16976.18 1498.052 L 16976.18 1498.052 Q 17018.59 1538.817 17042.061 1593.582 L 17042.061 1593.582 L 17042.061 1593.582 Q 17065.531 1648.346 17065.531 1711.758 L 17065.531 1711.758 L 17065.531 1711.758 Q 17065.531 1775.17 17042.061 1829.935 L 17042.061 1829.935 L 17042.061 1829.935 Q 17018.59 1884.699 16976.18 1925.464 L 16976.18 1925.464 L 16976.18 1925.464 Q 16933.768 1966.229 16874.473 1989.288 L 16874.473 1989.288 L 16874.473 1989.288 Q 16858.436 1995.524 16841.516 1999.994 L 16647.195 1999.994 L 16647.195 1999.994 L 16647.195 1999.994 L 16647.195 1999.994 L 16647.195 1999.994 L 16647.195 1999.994 L 16647.195 1999.994 L 16647.195 1999.994 L 16647.195 1999.994 L 16647.195 1999.994 Z " fill-rule="evenodd" fill="url(#_lgradient_0)"/></g></svg>